<?xml version="1.0" encoding="utf-8"?>
<!-- Generator: Adobe Illustrator 27.3.1, SVG Export Plug-In . SVG Version: 6.00 Build 0)  -->
<svg version="1.1" id="Layer_1" xmlns="http://www.w3.org/2000/svg" xmlns:xlink="http://www.w3.org/1999/xlink" x="0px" y="0px"
	 viewBox="0 0 257 167" style="enable-background:new 0 0 257 167;" xml:space="preserve">
<style type="text/css">
	.st0{fill:#333333;}
	.st1{filter:url(#Adobe_OpacityMaskFilter);}
	.st2{mask:url(#SVGID_1_);fill:#BCBCBC;}
	.st3{filter:url(#Adobe_OpacityMaskFilter_00000101078881097364758230000002191709159316330653_);}
	.st4{mask:url(#SVGID_00000052101770976248955600000005098149363759274393_);fill:#BCBCBC;}
</style>
<g>
	<g>
		<polygon class="st0" points="0.3,167 256.6,167 197.2,83 156.2,127.1 68,32.1 		"/>
		<defs>
			<filter id="Adobe_OpacityMaskFilter" filterUnits="userSpaceOnUse" x="0.3" y="32.1" width="256.3" height="134.9">
				<feFlood  style="flood-color:white;flood-opacity:1" result="back"/>
				<feBlend  in="SourceGraphic" in2="back" mode="normal"/>
			</filter>
		</defs>
		<mask maskUnits="userSpaceOnUse" x="0.3" y="32.1" width="256.3" height="134.9" id="SVGID_1_">
			<g class="st1">
				<g>
					<image style="overflow:visible;" width="359" height="249" xlink:href="9A34AEA3.png"  transform="matrix(1 0 0 1 -52 -27)">
					</image>
				</g>
			</g>
		</mask>
		<polygon class="st2" points="0.3,167 256.6,167 197.2,83 156.2,127.1 68,32.1 		"/>
	</g>
	<g>
		<circle class="st0" cx="183.5" cy="23.5" r="23.5"/>
		<defs>
			
				<filter id="Adobe_OpacityMaskFilter_00000000944157032314199750000001813073795357596813_" filterUnits="userSpaceOnUse" x="160" y="0" width="47" height="47">
				<feFlood  style="flood-color:white;flood-opacity:1" result="back"/>
				<feBlend  in="SourceGraphic" in2="back" mode="normal"/>
			</filter>
		</defs>
		
			<mask maskUnits="userSpaceOnUse" x="160" y="0" width="47" height="47" id="SVGID_00000147184041022982871250000002101702330694452376_">
			<g style="filter:url(#Adobe_OpacityMaskFilter_00000000944157032314199750000001813073795357596813_);">
				<g>
					<image style="overflow:visible;" width="125" height="125" xlink:href="9A34AEA6.png"  transform="matrix(1 0 0 1 121 -39)">
					</image>
				</g>
			</g>
		</mask>
		
			<circle style="mask:url(#SVGID_00000147184041022982871250000002101702330694452376_);fill:#BCBCBC;" cx="183.5" cy="23.5" r="23.5"/>
	</g>
</g>
</svg>
