<?xml version="1.0" encoding="utf-8"?>
<!-- Generator: Adobe Illustrator 27.0.0, SVG Export Plug-In . SVG Version: 6.00 Build 0)  -->
<svg version="1.1" id="Layer_1" xmlns="http://www.w3.org/2000/svg" xmlns:xlink="http://www.w3.org/1999/xlink" x="0px" y="0px"
	 viewBox="0 0 610.3 178.6" style="enable-background:new 0 0 610.3 178.6;" xml:space="preserve">
<style type="text/css">
	.st0{stroke:#000000;stroke-miterlimit:10;fill:azure}
</style>
<g>
	<g>
		<path class="st0" d="M275.9,64.7c8.4-4.5,15.8-10,22.3-16.9c0.3,0.2,0.7,0.4,1,0.7c-19,28.5,13.6,21.7,15.9,2.4
			c0-7.4-8.7,0-12.7-2.4c2.2-3,6.1-3.3,9.5-4c7.6-1.1,13.6-5.8,20.3-9.1c0.2,0.2,0.5,0.4,0.7,0.5c-0.4,1.7-0.8,3.3-1.1,4.3
			c-5.3-0.1-8.6,3.1-13.2,4.9c-1.4,0.6-1.8,1.4-1.7,3c3.8,15.8-28.2,34.3-26.2,10.2c-28.9,19-17,4.8-5.9-12.6
			c-4.5,1.9-9.2,2.8-11.1,8.7c-2.9,10.1-14.2,13-20.4,20.7c-4.6,5.2-21.3,20.4-15.8,2.6c-8.7,8.9-18.1,17-29.9,21.2
			c-13.8,3.1-3-13.3,1-17.9c-4.7-6.1-20.1,18.4-28.8,11.2c-18.2,15.9-30.4,14.3-20-11.8c2.9-7.4,6.6-14.5,9.9-21.8
			c1.4-2.9,1.3-6.5,4.2-8.3c1.9,4.3-2,8.4-3.2,12.5c-4.7,10.7-11.1,21-12,33c-0.1,11.9,21.2-3.5,22.1-9.8
			c4.6-12.2,12.8-22.5,15.9-35.2c0.4,0,0.8,0,1.2,0c4.3,7.7-30.3,51.6-6.3,37.2c7-4.8,13.8-9.7,18.3-17.3c3.5-5,9-10.9,15.5-10.6
			c-6.8,4.5-12.5,9.8-16.1,17c0.2,0.3,0.3,0.6,0.5,0.8c5.3-2.9,10.7-5.8,16-8.7c0.3,0.3,0.5,0.6,0.8,0.9c-1.6,2.7-4.5,4-7.1,5.5
			c-7.4,4.3-16.1,12.2-15.8,21.1c18.4-1.7,30.5-19.1,42.2-31.5c0.4,6.7-6.1,11.6-6.8,18.3c10.9-4.8,17-13.8,21-24.9
			c2.3,2.8,0.4,4.8-0.1,7.8c6-3.9,9.1-9.3,12.7-15.1c1.8-3.3,1.3-3.6,5-5.3c3.2-1.4,6.6-2.7,9.5-4.5c3-2.2,4.6-6.2,8.7-7
			c3.9,7.2-5.6,7.5-8.4,12.1c-3.7,6-8.3,11.5-11.9,17.6C275.6,64.4,275.7,64.5,275.9,64.7z"/>
		<path class="st0" d="M126.2,141c7.1-20.3,14.6-40.5,21.4-60.9c2.9-8.7,4.8-17.7,7.3-26.5c0.3-0.9,1.4-1.5,2.2-2.3
			c0.3,1,1.2,2.2,0.9,3c-3.5,11.4-7.1,22.7-10.9,34c-7.2,21.2-15,42.2-21.5,63.7c-1.7,4.3-1.7,9.3-5,12.7c-0.4-1-1.1-2.1-1-3.1
			c4.5-22.2,4.7-45.8-4.6-66.9C104.1,68,66,40.8,41.7,68.1c-16.6,17.7-25.2,41.4-30.6,64.6c-6.9,30.1,11.2,34,36.3,31.5
			c-36.4,9.4-47.1-11.7-35.6-44.2C19.1,96.9,29,71.3,50.6,58c25.1-13.9,51.3,9.3,63.5,30.2c9.5,15.9,11.1,34.4,10.8,52.5
			C125.3,140.9,125.7,140.9,126.2,141z"/>
		<path class="st0" d="M118.2,63c-9.7,1-2.4-8.2,0.8-11.1c10-10.7,25.5-7.8,38.7-8.9c37.6-2,77.2-7.2,109.9-27
			c3.3,4.3-14.1,9.8-17.1,11.4c-23,8.3-46.7,14.4-71.1,16.4c-14.1,1.4-28.4,1.7-42.6,2.5c-8.3,0.5-14.5,4.6-19.4,10.9
			C115.9,59,114.6,61,118.2,63z"/>
		<path class="st0" d="M213.8,57.2c0.9-3-0.3-7.5,2.3-9.5c1.9,2.9-0.9,6.5-1.3,9.7C214.5,57.3,214.1,57.3,213.8,57.2z"/>
	</g>
	<g>
		<path class="st0" d="M339.7,168.2c4.8-6.3,8.8-14,13.6-20.5c6.7-11.2,15.3-21.4,22.4-32.2c-1.5-0.5-6.8,4.1-7.5,5.9
			c-0.3,0.7-1.6,1.1-2.5,1.5c-2.5-2.1,1.4-4.7,3.2-5.9c10.5-5.6,16.6-14.8,22.5-24.7c7.8-11.1,1-7.2-7.5-6.4
			c-9.6,1.7-18.6,5.5-28.1,7.8c-4.1,1.9-10.7,1.4-13.3,5.2c-4.5,11.1-9.3,22.1-11.8,33.8c-1.8,4.7-1.8,16.2-5.3,18.7
			c-2-3.9,1-9.1,1.4-13.4c2.1-10.5,1.3-22.1-4.6-31.2c-1.9,5.8-38,39.2-39.7,26.1c1.4-0.8,2.1-0.1,2.6,1.6
			c6-1.1,40.7-25.9,34.3-31.5c-4.1-2.8-9.7,0.4-14.4,0.1c-10.6,1.5-21.5,1.7-32-0.3c-11.1-1.6-20.3-13.5-4.8-17.5
			c15-3.7,30.6,1.4,43.6,9.1c5.2,3.5,8.2,5.4,14.6,3.1c11.9-13.5,22.1-29.5,32.5-44.1c2.1,1.9-0.3,4.5-0.8,6.7
			c-4.2,11.6-9.5,22.6-13.6,34.2c17.3-3.5,33.5-12,51.4-12.1c1.5-0.1,1.8-0.5,1.4-1.8c-0.8-6.6,7-11.1,11.5-14.6
			c6-4,27.3-13.2,23.5,1.6c-3,8.3-11.4,13-17.7,18.7c-8.9,6.7-17.5,13.8-26.7,20c-6.4,3.5-9.5,10.1-13.9,15.7
			c-10.7,14.7-21,29.5-29.9,45.5C344.1,167.3,338.4,169.8,339.7,168.2z M386,104.6c0.1,0.1,0.2,0.2,0.3,0.3
			c13.2-9.9,27-19.2,38.7-30.8c14.4-16.5-2.3-14.2-13.3-8c-6.4,4.1-13.8,9.5-13.1,17.8C395.2,91.2,390.2,97.7,386,104.6z M288.5,102
			C288.5,102.1,288.5,102.1,288.5,102c8.7-0.7,17.7-0.9,26.1-2.8c-8.6-7.6-27.2-15.1-38.7-12.4c-1.2,0.3-2.6-0.2-3.8,0
			c-1.4,0.4-2.8,1.3-4.1,1.3c-2-0.1-3.3,1.1-4.7,1.9C258.4,100.3,281.9,102.9,288.5,102z M330.1,125.1c3.4-8.6,6.3-17.4,9.9-25.9
			c0.6-1.5-0.1-1.6-1.1-1.5c-5.1,1.4-14.6,1-14.7,8.1C328.2,111.7,328.8,118.3,330.1,125.1z M353.6,65.5c-0.2-0.1-0.3-0.2-0.5-0.3
			c-7.7,10.6-15.4,21.2-23.2,32c2.8-0.1,11.7-0.9,12.5-4C345.3,83.7,350.3,74.8,353.6,65.5z M321,100.7c-0.1,0.2-0.2,0.3-0.3,0.5
			c1.6,2.4,2.1,1.3,3.7-0.2c-0.1-0.2-0.2-0.3-0.2-0.5C323.1,100.5,322.1,100.6,321,100.7z"/>
		<path class="st0" d="M538.2,60.1c-17.6,1.6-11.3-7.7,0.6-5.8c2.3,0.3,0.8,3.6,3.2,3.1c19.4-2.5,38.2-7.1,57.3-10.6
			c16-0.3-24.8,32.8-27.8,36.7c-0.1-0.1-0.3-0.3-0.4-0.4c6.7-8.5,14.9-15.6,22-23.7c6.2-6.6,13.7-13.2-1.6-9
			c-16.5,4.1-33.4,6.3-50.1,9.3c-3.3,4.8-5.8,10.6-10.6,14.6c-5.7,5.9-21,16.9-28.7,11c-0.7-1.4-1.5-1-2.4-0.2
			c-13,11.7-25.5,24.4-41.6,31.6c-21,9.1-18.8-7.9-11.2-21.2c-18.8,10.4-12.5-2.2-7.3-13.6c-0.1-0.1-0.2-0.3-0.3-0.4
			c-11.8,4.5-2.2,5.3-9.9,13.9c-1.6,4.2-31.8,25-29.4,12.6c1.4-4.2,11-17.8,15.7-16.5c0.9,1,0.2,2.7-1.4,2.9
			c-4.6,1.7-11.1,10.2-11.9,15c11-2.6,23.3-9.6,28.2-20.2c1.6-6.3-10.2,2.3-13.6,1.3c-7.4-2,6.5-7.6,8.7-8.7
			c1.8-0.6,4.7,1.3,6.7,0.6c2.4-0.3,10.6-7.1,10.5-2.3c0.4,1.5-0.9,2.3-1.4,3.4c-0.5,2.8-8.9,14.5-2.8,13.6
			c10.1-3.7,17.3-12.2,21.2-21.9c0.7-2.4,3.2-0.9,4.7-2.3c7.8-9.3,15.9-18.3,23.8-27.4c4.6-4.6,34.6-40.6,38.3-35.1
			c3.7,16.3-23.5,42.7-33.9,55c-11.4,11.5-23.6,26.3-40,29.5c-1.9-0.9-2.8,0.5-3.6,1.7c-14.4,24,0.9,24.9,18.6,12.5
			c14.6-9.3,26.1-22.5,39.9-32.9c1.2-1.1,2.7-4.1,4.6-2.3c1.1,2.2-5.6,6.2-6.8,8.5c-0.8,1.2-0.7,2.4,1.1,2.4
			C520.2,83.7,532.4,72.2,538.2,60.1z M453,92c0.1,0.2,0.2,0.3,0.3,0.5c22.7-5.7,64.9-54.1,72.2-76.3C531.7-5.6,454.4,87,453,92z
			 M530.5,57.9c3,1.1,5.4-0.3,8.1-0.4C537.4,55.4,533,55.6,530.5,57.9z M418.9,88c0.1,0.2,0.2,0.3,0.3,0.5c3-1.3,6-2.5,9.3-3.9
			C424.4,83.5,421.5,86.3,418.9,88z"/>
		<path class="st0" d="M525.5,49.7c2.6-4.4,6.1-8.2,8.3-12.8c0.3-0.5,1.2-0.6,1.8-0.9c1.8,4.9-6,11.4-9.7,14.2
			C525.9,50.1,525.7,49.9,525.5,49.7z"/>
		<path class="st0" d="M430.7,75.2c-0.8-0.4-0.8-0.8-0.4-1.4c3-3.1,4.9-7.9,8.8-9.8C441.9,68.3,433.6,73,430.7,75.2z"/>
	</g>
	<polyline class="st0" points="227.4,107.8 242.8,82.7 237.7,84.7 	"/>
</g>
<g>
</g>
<g>
</g>
<g>
</g>
<g>
</g>
<g>
</g>
<g>
</g>
</svg>
