<?xml version="1.0" encoding="UTF-8"?><svg fill="#d3d2a7" id="Layer_1" xmlns="http://www.w3.org/2000/svg" viewBox="0 0 2708.09 1212.57"><defs><style>.cls-1{fill:none;stroke:#333;stroke-miterlimit:10;stroke-width:5px;}</style></defs><path class="cls-1" d="M47.8,26.89C121.62-4.76,178.58,5.34,225.07,7.87c60.16,3.28,111.75,6.41,176.77,24.88,46.87,13.32,99.68,44.03,174.61,44.03s127.95-22.67,172.23-26.51c63.74-5.52,110.2,6.53,173.94,1.01,44.28-3.84,96.87-26.5,172.23-26.5s127.95,22.67,172.23,26.51c63.74,5.52,110.2-6.53,173.94-1.01,44.28,3.84,96.87,26.5,172.23,26.5s127.95-22.67,172.23-26.51c63.74-5.52,110.2,6.53,173.94,1.01,44.28-3.84,96.87-26.5,172.23-26.5s129.63,14.07,174.73,8.11c65.59-8.66,112.1-37.37,173.13-28.82,43.63,6.11,89.4,40.22,160.3,70.61,37.12,15.91,64.11,23.02,65.72,43.65,1.64,20.95-28.13,43.59-36.98,74.37-6.41,22.29,7.5,50.57,7.5,80.27,0,32.6-22.55,53.64-26.45,72.72-5.48,26.86,6.38,49.89,.9,76.75-3.89,19.08-26.45,40.12-26.45,72.72s22.55,53.64,26.45,72.72c5.48,26.86-6.38,49.89-.9,76.75,3.89,19.08,26.45,40.12,26.45,72.72,0,32.6-22.55,53.64-26.45,72.73-5.48,26.86,6.38,49.89,.9,76.75-3.89,19.08-26.45,40.12-26.45,72.73,0,30.98,28.8,55.61,40.54,81.87,13.59,30.4,11.27,64.57,18.59,88.07,9.04,29,17.79,58.73-22.89,76.17-73.82,31.64-130.78,21.55-177.27,19.02-60.16-3.28-111.75-6.41-176.77-24.88-46.87-13.32-99.68-44.03-174.61-44.03s-127.95,22.67-172.23,26.51c-63.74,5.52-110.2-6.53-173.94-1.01-44.28,3.84-96.87,26.5-172.23,26.5-75.36,0-127.95-22.67-172.23-26.51-63.74-5.52-110.2,6.53-173.94,1.01-44.28-3.84-96.87-26.5-172.23-26.5-75.36,0-127.95,22.67-172.23,26.51-63.74,5.52-110.2-6.53-173.94-1.01-44.28,3.84-96.87,26.5-172.23,26.5-74.18,0-129.63-14.07-174.73-8.11-65.59,8.66-112.1,37.37-173.13,28.82-43.63-6.11-89.4-40.22-160.3-70.61-37.12-15.91-64.11-23.02-65.72-43.65-1.64-20.95,28.13-43.59,36.98-74.37,6.41-22.29-7.5-50.57-7.5-80.27,0-32.6,22.55-53.64,26.45-72.72,5.48-26.86-6.38-49.89-.9-76.75,3.89-19.08,26.45-40.12,26.45-72.72s-22.55-53.64-26.45-72.72c-5.48-26.86,6.38-49.89,.9-76.75-3.89-19.08-26.45-40.12-26.45-72.72,0-32.65,24.64-53.24,31.19-73.18,8.89-27.06,1.03-52.08,5.77-78.14,3.65-20.08,22.82-44.42,14.19-77.46-8.29-31.77-38.86-52.64-50.4-76.97-15.61-32.9-11.85-66.09-16.76-88.59-6.04-27.63-10.5-55.86,31.77-73.98Z"/></svg>